# xmcd
# Track frame offsets:
# 150
# 14866
# 30801
# 47983
# 64414
# 80849
# 96679
# 114822
# 130186
# 144792
# 157961
# 170395
# 185706
# 201377
# 219565
# 236088
# 254013
# 271925
# 290544
# 303674
#
# Disc length: 4196 seconds
# Revision: 0
# Processed by: cddbd v1.5.2PL0 Copyright (c) Steve Scherf et al.
# Submitted via: VisiTrax 2.10.3.257 - For more info visit www.synapsa.com
#
DISCID=33106214
DTITLE=Stewart, Gary - Gary-Cactus And A Rose
DYEAR=2000
DGENRE=Honky Tonk
TTITLE0=Mazelle
TTITLE1=Shady Streets
TTITLE2=The Next Thing You Know
TTITLE3=Everything A Good Little Girl Needs
TTITLE4=The Same Man
TTITLE5=The Blues Don't Care Who's Got 'Em
TTITLE6=I've Just Seen The Rock Of Ages
TTITLE7=Walkaway
TTITLE8=Lost Highway
TTITLE9=One More
TTITLE10=Okeechobee Purple
TTITLE11=Cactus An A Rose
TTITLE12=Staring Each Other Down
TTITLE13=Lovers Knot
TTITLE14=Ghost Train
TTITLE15=Roarin'
TTITLE16=Harlan Country Railway
TTITLE17=Are We Dreaming The Same Dream
TTITLE18=How Could We Come To This After That
TTITLE19=(We Made It As Lovers) We Just Couldn't Make It As Friends
EXTD=
EXTT0=
EXTT1=
EXTT2=
EXTT3=
EXTT4=
EXTT5=
EXTT6=
EXTT7=
EXTT8=
EXTT9=
EXTT10=
EXTT11=
EXTT12=
EXTT13=
EXTT14=
EXTT15=
EXTT16=
EXTT17=
EXTT18=
EXTT19=
PLAYORDER=
